<mxfile host="app.diagrams.net" modified="2023-10-07T00:09:36.415Z" agent="Mozilla/5.0 (Windows NT 10.0; Win64; x64) AppleWebKit/537.36 (KHTML, like Gecko) Chrome/117.0.0.0 Safari/537.36" etag="EXaoM9t6BkjQSVpAysFe" version="22.0.4" type="github">
  <diagram name="Page-1" id="IOUGsBtM0VuHTT_C2A28">
    <mxGraphModel dx="3134" dy="1242" grid="1" gridSize="10" guides="1" tooltips="1" connect="1" arrows="1" fold="1" page="1" pageScale="1" pageWidth="1920" pageHeight="1200" math="0" shadow="0">
      <root>
        <mxCell id="0" />
        <mxCell id="1" parent="0" />
        <mxCell id="jBJAWtFtNwN8TU2B9Nt--2" value="azure resource group" style="rounded=0;whiteSpace=wrap;html=1;fontStyle=0" parent="1" vertex="1">
          <mxGeometry x="480" y="300" width="160" height="80" as="geometry" />
        </mxCell>
        <mxCell id="jBJAWtFtNwN8TU2B9Nt--3" value="" style="html=1;shadow=0;dashed=0;align=center;verticalAlign=middle;shape=mxgraph.arrows2.arrow;dy=0.6;dx=40;direction=south;notch=0;" parent="1" vertex="1">
          <mxGeometry x="537.5" y="380" width="45" height="80" as="geometry" />
        </mxCell>
        <mxCell id="jBJAWtFtNwN8TU2B9Nt--4" value="Azure storage account" style="rounded=0;whiteSpace=wrap;html=1;" parent="1" vertex="1">
          <mxGeometry x="505" y="574" width="120" height="60" as="geometry" />
        </mxCell>
        <mxCell id="jBJAWtFtNwN8TU2B9Nt--6" style="edgeStyle=orthogonalEdgeStyle;rounded=0;orthogonalLoop=1;jettySize=auto;html=1;" parent="1" source="jBJAWtFtNwN8TU2B9Nt--5" edge="1">
          <mxGeometry relative="1" as="geometry">
            <mxPoint x="640" y="390" as="targetPoint" />
            <Array as="points">
              <mxPoint x="640" y="405" />
            </Array>
          </mxGeometry>
        </mxCell>
        <mxCell id="jBJAWtFtNwN8TU2B9Nt--5" value="" style="html=1;shadow=0;dashed=0;align=center;verticalAlign=middle;shape=mxgraph.arrows2.arrow;dy=0.6;dx=40;notch=15;rotation=40;" parent="1" vertex="1">
          <mxGeometry x="640.97" y="398.96" width="80" height="42.46" as="geometry" />
        </mxCell>
        <mxCell id="jBJAWtFtNwN8TU2B9Nt--7" value="" style="html=1;shadow=0;dashed=0;align=center;verticalAlign=middle;shape=mxgraph.arrows2.arrow;dy=0.6;dx=40;notch=15;rotation=-225;" parent="1" vertex="1">
          <mxGeometry x="400.55" y="398.4" width="80" height="46.03" as="geometry" />
        </mxCell>
        <mxCell id="jBJAWtFtNwN8TU2B9Nt--8" value="azure storage container" style="rounded=0;whiteSpace=wrap;html=1;" parent="1" vertex="1">
          <mxGeometry x="290" y="470" width="120" height="60" as="geometry" />
        </mxCell>
        <mxCell id="jBJAWtFtNwN8TU2B9Nt--9" value="azure storage blob" style="rounded=0;whiteSpace=wrap;html=1;" parent="1" vertex="1">
          <mxGeometry x="720.97" y="470" width="120" height="60" as="geometry" />
        </mxCell>
        <mxCell id="Zi5p-nNZNwRxvJ8hvcRf-1" value="" style="image;aspect=fixed;html=1;points=[];align=center;fontSize=12;image=img/lib/azure2/storage/Storage_Accounts.svg;" vertex="1" parent="1">
          <mxGeometry x="500" y="470" width="130" height="104" as="geometry" />
        </mxCell>
        <mxCell id="Zi5p-nNZNwRxvJ8hvcRf-2" value="" style="image;aspect=fixed;html=1;points=[];align=center;fontSize=12;image=img/lib/azure2/general/Resource_Groups.svg;" vertex="1" parent="1">
          <mxGeometry x="490" y="168.24" width="140" height="131.76" as="geometry" />
        </mxCell>
        <mxCell id="Zi5p-nNZNwRxvJ8hvcRf-3" value="" style="image;aspect=fixed;html=1;points=[];align=center;fontSize=12;image=img/lib/azure2/general/Storage_Container.svg;" vertex="1" parent="1">
          <mxGeometry x="290.62" y="371.5" width="119.38" height="97" as="geometry" />
        </mxCell>
        <mxCell id="Zi5p-nNZNwRxvJ8hvcRf-4" value="" style="verticalLabelPosition=bottom;html=1;verticalAlign=top;align=center;strokeColor=none;fillColor=#00BEF2;shape=mxgraph.azure.storage_blob;" vertex="1" parent="1">
          <mxGeometry x="720.97" y="360" width="119.03" height="110" as="geometry" />
        </mxCell>
      </root>
    </mxGraphModel>
  </diagram>
</mxfile>
